<svg id="Layer_1" data-name="Layer 1" xmlns="http://www.w3.org/2000/svg" xmlns:xlink="http://www.w3.org/1999/xlink" viewBox="0 0 1414 392"><defs><style>.cls-1{fill:none;}.cls-2{fill:#f5ab35;}.cls-3{fill:#22313f;}.cls-4{clip-path:url(#clip-path);}.cls-5{fill:#fff;}</style><clipPath id="clip-path"><path class="cls-1" d="M100.1007,268.1188V111.222H204.83c20.0757,0,38.4827,11.9119,45.9906,30.5309q.2958.7334.5737,1.4888c8.6214,23.453-3.35,43.31-4.803,45.6282a179.2869,179.2869,0,0,0-72.0444,16.01A181.33,181.33,0,0,0,100.1007,268.1188Z"/></clipPath></defs><path class="cls-2" d="M100.501,266.8437V109.9469H205.23c20.0757,0,38.4828,11.9119,45.9907,30.5309q.2958.7335.5736,1.4889c8.6215,23.4529-3.35,43.31-4.8029,45.6281a179.2894,179.2894,0,0,0-72.0445,16.01A181.329,181.329,0,0,0,100.501,266.8437Z"/><path class="cls-3" d="M151.7326,281.2526a117.0269,117.0269,0,0,1,92.0568-87.2538c18.1916,15.356,24.7679,39.4771,16.81,59.2365-8.4884,21.0776-29.7706,27.895-32.82,28.8178Z"/><g class="cls-4"><rect class="cls-5" x="128.118" y="172.0595" width="25.6158" height="68.8425"/><rect class="cls-5" x="161.3385" y="154.0484" width="25.6158" height="68.8425"/><rect class="cls-5" x="194.1588" y="134.0361" width="25.6158" height="68.8425"/></g><path class="cls-3" d="M279.619,238.138c0-25.3173,19.5351-43.29,46.2588-43.29s46.103,17.9722,46.103,43.29-19.3789,43.29-46.103,43.29S279.619,263.4554,279.619,238.138Zm67.6694,0c0-14.5341-9.2207-23.2856-21.4106-23.2856s-21.5664,8.7515-21.5664,23.2856,9.3769,23.2862,21.5664,23.2862S347.2884,252.6722,347.2884,238.138Z"/><path class="cls-3" d="M381.9852,238.138c0-25.3173,19.5351-43.29,46.2588-43.29s46.103,17.9722,46.103,43.29-19.3789,43.29-46.103,43.29S381.9852,263.4554,381.9852,238.138Zm67.6694,0c0-14.5341-9.2207-23.2856-21.4106-23.2856s-21.5664,8.7515-21.5664,23.2856,9.3769,23.2862,21.5664,23.2862S449.6546,252.6722,449.6546,238.138Z"/><path class="cls-3" d="M483.7264,269.3944l8.5952-19.0664c9.2207,6.72,22.9732,11.4087,36.1011,11.4087,15.0029,0,21.0976-5.001,21.0976-11.7212,0-20.4727-63.6059-6.4077-63.6059-47.0405,0-18.5972,15.0029-34.0694,46.1025-34.0694,13.753,0,27.8179,3.2822,37.9761,9.69l-7.814,19.2226c-10.1582-5.7822-20.6289-8.5952-30.3183-8.5952-15.003,0-20.7852,5.626-20.7852,12.5025,0,20.16,63.606,6.2509,63.606,46.415,0,18.2851-15.1592,33.9131-46.4151,33.9131C510.9193,282.0531,493.4159,276.8959,483.7264,269.3944Z"/><path class="cls-3" d="M644.5389,276.1141c-5.001,3.5947-12.3462,5.314-19.8477,5.314-19.8476,0-31.4121-10.1587-31.4121-30.1626V216.7279H580.3075V197.974h12.9716V177.5013h24.3794V197.974H638.6v18.7539H617.6585V250.953c0,7.1889,3.9073,11.0962,10.4712,11.0962a16.4324,16.4324,0,0,0,9.8457-3.126Z"/><path class="cls-3" d="M649.3851,238.138c0-25.3173,19.5351-43.29,46.2593-43.29s46.1025,17.9722,46.1025,43.29-19.3789,43.29-46.1025,43.29S649.3851,263.4554,649.3851,238.138Zm67.6694,0c0-14.5341-9.2207-23.2856-21.41-23.2856s-21.5669,8.7515-21.5669,23.2856,9.3769,23.2862,21.5669,23.2862S717.0545,252.6722,717.0545,238.138Z"/><path class="cls-3" d="M751.7513,238.138c0-25.3173,19.5352-43.29,46.8843-43.29,17.66,0,31.5683,7.6577,37.6636,21.41l-18.91,10.1587c-4.5322-7.9707-11.252-11.5649-18.91-11.5649-12.3462,0-22.0356,8.5952-22.0356,23.2856s9.6894,23.2862,22.0356,23.2862c7.6577,0,14.3775-3.4385,18.91-11.565l18.91,10.3145c-6.0953,13.44-20.004,21.2544-37.6636,21.2544C771.2865,281.4281,751.7513,263.4554,751.7513,238.138Z"/><path class="cls-3" d="M885.8411,247.2025,874.12,258.7669v21.4107H849.74v-115.96h24.38v65.6377l35.6318-33.7568H938.82l-35.0068,35.6323,38.1323,48.4468H912.409Z"/><path class="cls-3" d="M945.6991,226.4173h44.2275V245.952H945.6991Z"/><path class="cls-3" d="M1010.8675,170.7811h25.3174V280.1776h-25.3174Z"/><path class="cls-3" d="M1146.3621,232.0433v48.1343h-24.38V235.7938c0-13.5962-6.251-19.8477-17.0347-19.8477-11.7207,0-20.16,7.189-20.16,22.6607v41.5708H1060.408V196.0985h23.2857v9.8457c6.5635-7.189,16.4092-11.0957,27.8179-11.0957C1131.3592,194.8485,1146.3621,206.4134,1146.3621,232.0433Z"/><path class="cls-3" d="M1195.1234,197.974H1216.69v18.7539h-20.9419v63.45H1171.369v-63.45h-12.9717V197.974h12.9717v-3.75c0-18.91,11.5644-31.2564,32.5063-31.2564,6.876,0,14.065,1.4068,18.5972,4.5323l-6.4072,17.66a17.071,17.071,0,0,0-9.8457-2.9692c-7.189,0-11.0962,3.9067-11.0962,12.19Z"/><path class="cls-3" d="M1221.5374,238.138c0-25.3173,19.5352-43.29,46.2593-43.29s46.1026,17.9722,46.1026,43.29-19.379,43.29-46.1026,43.29S1221.5374,263.4554,1221.5374,238.138Zm67.6695,0c0-14.5341-9.2207-23.2856-21.41-23.2856s-21.5669,8.7515-21.5669,23.2856,9.377,23.2862,21.5669,23.2862S1289.2069,252.6722,1289.2069,238.138Z"/></svg>